<svg width="31" height="31" viewBox="0 0 31 31" fill="none" xmlns="http://www.w3.org/2000/svg">
<path d="M15.5 0C13.4645 0 11.449 0.410873 9.56841 1.20916C7.68786 2.00745 5.97915 3.17751 4.53984 4.65256C1.63303 7.63154 0 11.6719 0 15.8848C0 22.9059 4.4485 28.8627 10.602 30.9754C11.377 31.1025 11.625 30.61 11.625 30.1812V27.4966C7.3315 28.4497 6.417 25.3681 6.417 25.3681C5.704 23.5254 4.6965 23.033 4.6965 23.033C3.286 22.0481 4.805 22.0799 4.805 22.0799C6.355 22.1911 7.1765 23.716 7.1765 23.716C8.525 26.1305 10.8035 25.4157 11.687 25.0345C11.8265 24.002 12.2295 23.303 12.6635 22.9059C9.2225 22.5088 5.611 21.1427 5.611 15.0906C5.611 13.3274 6.2 11.9136 7.2075 10.7858C7.0525 10.3887 6.51 8.73665 7.3625 6.5922C7.3625 6.5922 8.6645 6.16331 11.625 8.21245C12.8495 7.86298 14.1825 7.68825 15.5 7.68825C16.8175 7.68825 18.1505 7.86298 19.375 8.21245C22.3355 6.16331 23.6375 6.5922 23.6375 6.5922C24.49 8.73665 23.9475 10.3887 23.7925 10.7858C24.8 11.9136 25.389 13.3274 25.389 15.0906C25.389 21.1586 21.762 22.4929 18.3055 22.89C18.8635 23.3825 19.375 24.3514 19.375 25.8287V30.1812C19.375 30.61 19.623 31.1184 20.4135 30.9754C26.567 28.8468 31 22.9059 31 15.8848C31 13.7988 30.5991 11.7332 29.8201 9.80596C29.0412 7.87873 27.8995 6.1276 26.4602 4.65256C25.0208 3.17751 23.3121 2.00745 21.4316 1.20916C19.551 0.410873 17.5355 0 15.5 0V0Z" fill="black" fill-opacity="0.7"/>
</svg>
