<svg width="47" height="48" viewBox="0 0 47 48" fill="none" xmlns="http://www.w3.org/2000/svg">
<path d="M36.8839 36.9857C36.8839 39.5588 30.9722 41.6321 23.6835 41.6321C16.3949 41.6321 10.4832 39.5403 10.4832 36.9857C10.4832 34.4127 16.3949 32.3394 23.6835 32.3394C30.9722 32.3394 36.8839 34.4127 36.8839 36.9857Z" fill="#9EDCF2"/>
<path d="M36.8839 36.9857C36.8839 39.5588 30.9722 41.6321 23.6835 41.6321C16.3949 41.6321 10.4832 39.5403 10.4832 36.9857C10.4832 34.4127 16.3949 32.3394 23.6835 32.3394C30.9722 32.3394 36.8839 34.4127 36.8839 36.9857Z" fill="#7DBCE7"/>
<path d="M8.61053 23.3058L8.22498 24.6386C8.22498 24.6386 8.13319 25.1199 8.57381 25.2125C9.05115 25.194 9.01444 24.7497 8.97772 24.6201L8.61053 23.3058Z" fill="#9EDCF2"/>
<path d="M46.9633 17.6969L47 17.5303C43.1262 16.7528 39.1605 16.7343 36.7555 16.8454C37.141 15.42 37.2695 13.754 37.2695 11.9213C37.2695 9.2742 36.2781 7.1639 34.6992 5.57192C34.9746 4.66487 35.3418 2.64713 34.332 0.0740449C34.332 0.0740449 32.5328 -0.499808 28.4387 2.25839C26.8414 1.85114 25.134 1.64751 23.4266 1.64751C21.5539 1.64751 19.6629 1.88816 17.882 2.36946C13.6594 -0.53683 11.8051 0.0555336 11.8051 0.0555336C10.5934 3.10991 11.3461 5.38681 11.5664 5.94215C10.1344 7.49711 9.27148 9.47783 9.27148 11.9028C9.27148 13.7354 9.47344 15.383 9.9875 16.8083C7.56406 16.7158 3.74531 16.7528 0 17.5118L0.0367188 17.6784C3.78203 16.9194 7.6375 16.9009 10.0426 16.9934C10.1527 17.2896 10.2812 17.5858 10.4098 17.8635C8.02305 17.9375 3.96563 18.2522 0.0734375 19.3629L0.128516 19.5295C4.05742 18.4188 8.15156 18.1226 10.5199 18.0486C11.952 20.7142 14.7426 22.4543 19.7363 22.9911C19.0203 23.4724 18.3043 24.2869 18.0105 25.6753C17.0375 26.1381 13.9898 27.2858 12.1539 24.1018C12.1539 24.1018 11.1258 22.2137 9.16133 22.0656C9.16133 22.0656 7.25195 22.0285 9.03281 23.2688C9.03281 23.2688 10.2996 23.8797 11.1809 26.1566C11.1809 26.1566 12.3375 30.044 17.8637 28.7852V32.7651C17.8637 32.7651 17.7535 34.1905 16.45 34.6533C16.45 34.6533 15.6789 35.1901 16.5051 35.4863C16.5051 35.4863 20.0852 35.7825 20.0852 32.8207V28.452C20.0852 28.452 19.9383 26.7119 20.7828 26.1196V33.302C20.7828 33.302 20.7277 35.0235 19.8465 35.6714C19.8465 35.6714 19.259 36.7266 20.5441 36.4489C20.5441 36.4489 23.0043 36.0972 23.1145 33.1909L23.1695 25.9159H23.757L23.8121 33.1909C23.9223 36.0787 26.3824 36.4489 26.3824 36.4489C27.6676 36.7451 27.0801 35.6714 27.0801 35.6714C26.1988 35.0235 26.1437 33.302 26.1437 33.302V26.1751C26.9883 26.8415 26.8414 28.452 26.8414 28.452V32.8207C26.8414 35.7825 30.4215 35.4863 30.4215 35.4863C31.2477 35.1901 30.4766 34.6533 30.4766 34.6533C29.1914 34.172 29.0629 32.7651 29.0629 32.7651V27.0266C29.0629 24.7867 28.1266 23.602 27.2086 22.9911C32.5328 22.4543 35.0848 20.7327 36.2598 18.0301C38.5914 18.0856 42.7957 18.3818 46.798 19.5295L46.8531 19.3629C42.8691 18.2337 38.7016 17.9375 36.3332 17.8635C36.4434 17.5858 36.5352 17.3081 36.627 17.012C39.0871 16.9194 43.0711 16.9194 46.9633 17.6969Z" fill="#010101"/>
<path d="M32.0554 11.7917C33.1937 12.8469 33.873 14.1057 33.873 15.457C33.873 21.8249 29.173 21.9915 23.3714 21.9915C17.5699 21.9915 12.8699 21.103 12.8699 15.457C12.8699 14.1057 13.5308 12.8469 14.6691 11.8103C16.5601 10.0702 19.7546 10.9958 23.3714 10.9958C26.9882 10.9958 30.1644 10.0517 32.0554 11.7917Z" fill="#F5CCB3"/>
<path d="M19.8832 15.7902C19.8832 17.5488 18.9102 18.9557 17.6984 18.9557C16.4867 18.9557 15.5137 17.5303 15.5137 15.7902C15.5137 14.0316 16.4867 12.6248 17.6984 12.6248C18.9102 12.6062 19.8832 14.0316 19.8832 15.7902Z" fill="white"/>
<path d="M19.1856 15.8272C19.1856 16.9934 18.5246 17.9375 17.7352 17.9375C16.9274 17.9375 16.2848 16.9934 16.2848 15.8272C16.2848 14.661 16.9457 13.7169 17.7352 13.7169C18.5246 13.7169 19.1856 14.661 19.1856 15.8272Z" fill="#AF5C51"/>
<path d="M31.6149 15.7902C31.6149 17.5488 30.6418 18.9557 29.4301 18.9557C28.2184 18.9557 27.2454 17.5303 27.2454 15.7902C27.2454 14.0316 28.2184 12.6248 29.4301 12.6248C30.6235 12.6062 31.6149 14.0316 31.6149 15.7902Z" fill="white"/>
<path d="M30.8988 15.8272C30.8988 16.9934 30.2379 17.9375 29.4484 17.9375C28.6406 17.9375 27.998 16.9934 27.998 15.8272C27.998 14.661 28.659 13.7169 29.4484 13.7169C30.2562 13.7169 30.8988 14.661 30.8988 15.8272ZM23.959 18.6039C23.959 18.9001 23.7203 19.1593 23.4082 19.1593C23.1144 19.1593 22.8574 18.9186 22.8574 18.6039C22.8574 18.2892 23.0961 18.0486 23.4082 18.0486C23.7019 18.0486 23.959 18.2892 23.959 18.6039ZM22.1414 19.9923C22.1047 19.8997 22.1597 19.8072 22.2515 19.7702C22.3433 19.7331 22.4351 19.7887 22.4719 19.8812C22.6187 20.2885 22.9859 20.5476 23.4082 20.5476C23.8304 20.5476 24.1976 20.27 24.3445 19.8812C24.3812 19.7887 24.473 19.7331 24.5648 19.7702C24.6566 19.8072 24.7117 19.8997 24.675 19.9923C24.4914 20.5291 23.9773 20.8993 23.4082 20.8993C22.839 20.8993 22.325 20.5291 22.1414 19.9923Z" fill="#AF5C51"/>
<path d="M10.0058 22.5098C10.0058 22.6579 9.8406 22.769 9.62029 22.769C9.41834 22.769 9.23474 22.6579 9.23474 22.5098C9.23474 22.3617 9.39998 22.2507 9.62029 22.2507C9.8406 22.2507 10.0058 22.3617 10.0058 22.5098ZM11.0707 23.1022C11.0707 23.2503 10.9054 23.3614 10.6851 23.3614C10.4832 23.3614 10.2996 23.2503 10.2996 23.1022C10.2996 22.9541 10.4648 22.843 10.6851 22.843C10.9054 22.843 11.0707 22.9541 11.0707 23.1022ZM11.7133 23.8797C11.7133 24.0278 11.548 24.1388 11.3277 24.1388C11.1258 24.1388 10.9422 24.0278 10.9422 23.8797C10.9422 23.7316 11.1074 23.6205 11.3277 23.6205C11.548 23.602 11.7133 23.7316 11.7133 23.8797ZM12.3008 24.7682C12.3008 24.9163 12.1355 25.0274 11.9152 25.0274C11.7133 25.0274 11.5297 24.9163 11.5297 24.7682C11.5297 24.6201 11.6949 24.5091 11.9152 24.5091C12.1355 24.4906 12.3008 24.6201 12.3008 24.7682ZM12.9433 25.5827C12.9433 25.7308 12.7781 25.8419 12.5578 25.8419C12.3558 25.8419 12.1722 25.7308 12.1722 25.5827C12.1722 25.4346 12.3375 25.3236 12.5578 25.3236C12.7781 25.3236 12.9433 25.4346 12.9433 25.5827ZM13.8246 26.3047C13.8246 26.4528 13.6594 26.5638 13.439 26.5638C13.2371 26.5638 13.0535 26.4528 13.0535 26.3047C13.0535 26.1566 13.2187 26.0455 13.439 26.0455C13.6594 26.027 13.8246 26.1566 13.8246 26.3047ZM15.0547 26.7675C15.0547 26.9155 14.8894 27.0266 14.6691 27.0266C14.4672 27.0266 14.2836 26.9155 14.2836 26.7675C14.2836 26.6194 14.4488 26.5083 14.6691 26.5083C14.8894 26.5083 15.0547 26.6194 15.0547 26.7675ZM16.2847 26.7675C16.2847 26.9155 16.1195 27.0266 15.8992 27.0266C15.6972 27.0266 15.5136 26.9155 15.5136 26.7675C15.5136 26.6194 15.6789 26.5083 15.8992 26.5083C16.1195 26.5083 16.2847 26.6194 16.2847 26.7675ZM17.5332 26.5638C17.5332 26.7119 17.3679 26.823 17.1476 26.823C16.9457 26.823 16.7621 26.7119 16.7621 26.5638C16.7621 26.4157 16.9273 26.3047 17.1476 26.3047C17.3496 26.3047 17.5332 26.4157 17.5332 26.5638Z" fill="#C4E5D9"/>
</svg>
