<svg width="31" height="25" viewBox="0 0 31 25" fill="none" xmlns="http://www.w3.org/2000/svg">
<g clip-path="url(#clip0_19_9)">
<path d="M7.04548 24.7564V12.0063L3.33093 8.38884L0 6.38138V22.5064C0 23.7514 0.947559 24.7564 2.11369 24.7564H7.04548V24.7564Z" fill="#4285F4"/>
<path d="M23.9545 24.7564H28.8863C30.056 24.7564 31 23.7476 31 22.5064V6.3815L27.2272 8.6808L23.9545 12.0063V24.7564V24.7564Z" fill="#34A853"/>
<path d="M7.04548 12.0063L6.54003 7.02449L7.04548 2.25638L15.5 9.00642L23.9545 2.25638L24.5199 6.76707L23.9545 12.0063L15.5 18.7564L7.04548 12.0063Z" fill="#EA4335"/>
<path d="M23.9545 2.25637V12.0063L31 6.38137V3.38133C31 0.598889 28.0162 -0.987302 25.9274 0.681389L23.9545 2.25637Z" fill="#FBBC04"/>
<path d="M0 6.38139L3.24035 8.96854L7.04548 12.0063V2.25639L5.07262 0.681418C2.98012 -0.987403 0 0.598918 0 3.38123V6.38127V6.38139Z" fill="#C5221F"/>
</g>
<defs>
<clipPath id="clip0_19_9">
<rect width="31" height="24.8789" fill="white"/>
</clipPath>
</defs>
</svg>
