<svg width="119" height="52" viewBox="0 0 119 52" fill="none" xmlns="http://www.w3.org/2000/svg">
<path d="M61.4374 21.5738L67.099 21.2095C67.2281 22.131 67.4649 22.8169 67.8524 23.3098C68.4767 24.0813 69.3377 24.4671 70.4786 24.4671C71.3182 24.4671 71.9855 24.2742 72.4376 23.867C72.8681 23.5455 73.1264 23.0312 73.1264 22.4954C73.1264 21.981 72.8897 21.4881 72.4806 21.1666C72.0501 20.7808 71.0383 20.395 69.4454 20.0521C66.8406 19.4735 64.9678 18.7019 63.8699 17.716C62.7721 16.7944 62.1478 15.4442 62.1908 14.0083C62.1908 13.0224 62.4922 12.0365 63.0519 11.2221C63.6977 10.3005 64.5803 9.57185 65.6351 9.16464C66.776 8.6717 68.369 8.41452 70.371 8.41452C72.8251 8.41452 74.6979 8.86459 75.9895 9.78617C77.2811 10.6863 78.0561 12.1437 78.2929 14.1369L72.6959 14.4584C72.5452 13.6011 72.2438 12.9795 71.7487 12.5723C71.2536 12.1651 70.6078 11.9722 69.7683 11.9722C69.0794 11.9722 68.5628 12.1223 68.2183 12.4009C67.8954 12.6581 67.6802 13.0438 67.7017 13.4725C67.7017 13.794 67.8739 14.094 68.1322 14.2869C68.4121 14.5441 69.0794 14.7798 70.1342 14.9942C72.739 15.5514 74.5903 16.1086 75.7312 16.6873C76.8721 17.266 77.6901 17.9732 78.1852 18.8091C78.7019 19.6663 78.9602 20.6522 78.9387 21.6595C78.9387 22.8597 78.5942 24.0599 77.9054 25.0672C77.195 26.1174 76.2048 26.9318 75.0423 27.4247C73.8153 27.9605 72.2654 28.2392 70.4141 28.2392C67.142 28.2392 64.8817 27.6176 63.6116 26.3531C62.3415 25.0887 61.5881 23.5027 61.4374 21.5738ZM1.35619 27.9177V8.75743H11.28C13.1098 8.75743 14.5306 8.90745 15.4993 9.22893C16.4465 9.52898 17.286 10.1505 17.8457 10.9864C18.47 11.9079 18.7713 12.9795 18.7498 14.094C18.8144 15.98 17.8457 17.7803 16.1881 18.7233C15.5423 19.0877 14.8319 19.3449 14.1 19.4735C14.6382 19.6235 15.1764 19.8807 15.65 20.1807C16.0159 20.4808 16.3173 20.8237 16.5971 21.188C16.92 21.5524 17.1999 21.9596 17.4367 22.3882L20.3213 27.9391H13.5619L10.3759 22.0453C9.9669 21.2952 9.62247 20.8022 9.29957 20.5665C8.86903 20.2664 8.35239 20.1164 7.83575 20.1164H7.3191V27.8963H1.35619V27.9177ZM7.3191 16.5158H9.83773C10.3759 16.473 10.8925 16.3872 11.4092 16.2586C11.7967 16.1944 12.1411 15.98 12.3779 15.6586C12.9591 14.887 12.873 13.794 12.1626 13.1296C11.7751 12.8081 11.0217 12.6366 9.94537 12.6366H7.3191V16.5158ZM0 44.3346L5.66154 43.9703C5.7907 44.8919 6.0275 45.5777 6.41498 46.0706C7.01773 46.8422 7.90033 47.2494 9.04124 47.2494C9.88079 47.2494 10.5481 47.0565 11.0002 46.6493C11.4307 46.3064 11.689 45.8134 11.689 45.2776C11.689 44.7633 11.4522 44.2703 11.0432 43.9489C10.6127 43.5631 9.60094 43.1773 7.98643 42.8344C5.38169 42.2557 3.50886 41.4842 2.411 40.4983C1.31313 39.5767 0.688857 38.2265 0.73191 36.7906C0.73191 35.8047 1.03329 34.8188 1.59298 34.0044C2.23878 33.0828 3.12138 32.3541 4.17619 31.9469C5.31711 31.454 6.91009 31.1968 8.91208 31.1968C11.3661 31.1968 13.239 31.6469 14.5306 32.5684C15.8222 33.49 16.5756 34.926 16.8124 36.9191L11.2154 37.2406C11.0648 36.3833 10.7634 35.7618 10.2683 35.3546C9.79468 34.9474 9.12735 34.7545 8.28781 34.7759C7.59895 34.7759 7.08231 34.926 6.73788 35.226C6.39345 35.4832 6.19971 35.869 6.22124 36.2976C6.22124 36.6191 6.39345 36.9191 6.65177 37.112C6.93162 37.3692 7.59895 37.605 8.65376 37.8193C11.2585 38.3765 13.1098 38.9338 14.2507 39.5124C15.3916 40.0911 16.2097 40.7983 16.7048 41.6342C17.2214 42.4915 17.4797 43.4774 17.4797 44.4632C17.4797 45.6634 17.1138 46.8422 16.4465 47.8495C15.7361 48.8997 14.7458 49.7141 13.5834 50.207C12.3564 50.7428 10.8064 51.0214 8.95514 51.0214C5.68307 51.0214 3.42276 50.3999 2.15268 49.1354C0.882598 47.8495 0.172214 46.2635 0 44.3346H0Z" fill="black"/>
<path d="M28.6306 42.8344L33.8401 44.3989C33.5602 45.7063 32.979 46.9493 32.1825 48.0424C31.4506 49.0068 30.4819 49.7569 29.384 50.2499C28.2647 50.7428 26.8439 51 25.1217 51C23.0336 51 21.3115 50.7 19.9984 50.0999C18.6637 49.4998 17.5228 48.4282 16.5541 46.9065C15.5854 45.3848 15.1118 43.4345 15.1118 41.0555C15.1118 37.8836 15.9513 35.4403 17.652 33.7472C19.3526 32.0541 21.742 31.1968 24.8419 31.1968C27.2744 31.1968 29.1688 31.6897 30.568 32.6542C31.9457 33.64 32.979 35.1403 33.6679 37.1549L28.4153 38.3122C28.2862 37.8622 28.0924 37.4121 27.8341 37.0263C27.5112 36.5762 27.1022 36.2333 26.6071 35.9761C26.112 35.7189 25.5523 35.6118 24.9926 35.6118C23.6364 35.6118 22.6031 36.1476 21.8927 37.2406C21.3546 38.0336 21.0747 39.2981 21.0747 41.0127C21.0747 43.1344 21.3976 44.5918 22.0434 45.3848C22.6892 46.1778 23.5933 46.5636 24.7773 46.5636C25.9182 46.5636 26.7793 46.2421 27.3605 45.6206C27.9418 44.9562 28.3723 44.0346 28.6306 42.8344ZM40.7932 31.5183H46.7346V38.2265H53.2357V31.5183H59.2202V50.6785H53.2357V42.9201H46.7346V50.6785H40.7932V31.5183V31.5183Z" fill="black"/>
<path d="M58.4021 41.0984C58.4021 37.9693 59.2847 35.5261 61.0284 33.7901C62.7721 32.0541 65.2261 31.1754 68.3475 31.1754C71.555 31.1754 74.009 32.0326 75.7527 33.7472C77.4964 35.4618 78.3575 37.8622 78.3575 40.9484C78.3575 43.1987 77.97 45.0205 77.2165 46.4564C76.4846 47.8709 75.3437 49.0283 73.9445 49.7998C72.5022 50.5928 70.7154 51 68.5843 51C66.4101 51 64.6234 50.6571 63.2026 49.9713C61.7388 49.2426 60.5333 48.1067 59.7368 46.7136C58.8542 45.2133 58.4021 43.3488 58.4021 41.0984ZM64.3435 41.1198C64.3435 43.0487 64.7095 44.4418 65.4199 45.2991C66.1302 46.1349 67.1205 46.5636 68.369 46.5636C69.6391 46.5636 70.6293 46.1564 71.3397 45.3205C72.0501 44.4847 72.3945 43.0058 72.3945 40.8626C72.3945 39.0623 72.0286 37.7336 71.2967 36.9191C70.5648 36.0833 69.5745 35.6761 68.326 35.6761C67.2281 35.6332 66.1733 36.1047 65.4414 36.9406C64.7095 37.7764 64.3435 39.1695 64.3435 41.1198V41.1198ZM84.4495 41.0984C84.4495 37.9693 85.3321 35.5261 87.0758 33.7901C88.8195 32.0541 91.2735 31.1754 94.3949 31.1754C97.6024 31.1754 100.078 32.0326 101.8 33.7472C103.522 35.4618 104.405 37.8622 104.405 40.9484C104.405 43.1987 104.017 45.0205 103.264 46.4564C102.532 47.8709 101.391 49.0283 99.9919 49.7998C98.5496 50.5928 96.7628 51 94.6317 51C92.4575 51 90.6708 50.6571 89.25 49.9713C87.7862 49.2426 86.5807 48.1067 85.7842 46.7136C84.9016 45.2133 84.4495 43.3488 84.4495 41.0984V41.0984ZM90.3909 41.1198C90.3909 43.0487 90.7569 44.4418 91.4673 45.2991C92.1776 46.1349 93.1679 46.5636 94.4164 46.5636C95.6865 46.5636 96.6767 46.1564 97.3871 45.3205C98.0975 44.4847 98.4419 43.0058 98.4419 40.8626C98.4419 39.0623 98.076 37.7336 97.3441 36.9191C96.6122 36.0833 95.6219 35.6761 94.3734 35.6761C93.2755 35.6332 92.1992 36.1047 91.4888 36.9406C90.7569 37.7764 90.3909 39.1695 90.3909 41.1198V41.1198Z" fill="black"/>
<path d="M103.781 31.5183H109.722V45.9635H119V50.6785H103.759V31.5183H103.781Z" fill="black"/>
<path d="M103.925 31.3874C111.561 26.024 113.916 16.9321 109.185 11.0802C104.453 5.22822 94.426 4.83218 86.7893 10.1956C79.1526 15.559 76.7977 24.6509 81.5295 30.5029C86.2613 36.3548 96.288 36.7509 103.925 31.3874Z" fill="#F1F1F1"/>
<path d="M87.6332 19.1082L90.3815 17.3153L93.7619 21.7976C94.339 22.5148 94.7787 23.2832 95.1085 24.1284C95.3009 24.7688 95.2459 25.4603 94.9711 26.0751C94.6138 26.8435 94.0367 27.4838 93.2672 27.9448C92.3602 28.5339 91.5907 28.8669 90.9311 28.9694C90.299 29.0718 89.6394 28.9694 89.0348 28.7132C88.3752 28.4059 87.7981 27.9704 87.3584 27.4069L89.7219 25.3579C89.9143 25.6396 90.1616 25.8958 90.4364 26.1007C90.6288 26.2287 90.8487 26.3056 91.096 26.3056C91.2884 26.3056 91.4808 26.2287 91.6182 26.1263C91.893 25.9726 92.0854 25.6652 92.0579 25.3579C91.9755 24.9225 91.7831 24.487 91.4808 24.1541L87.6332 19.1082V19.1082ZM95.878 21.9513L98.379 20.1072C98.6538 20.4145 99.0111 20.645 99.3958 20.7731C99.9455 20.9268 100.523 20.8243 100.99 20.4914C101.32 20.2864 101.594 20.0047 101.704 19.6461C101.869 19.1851 101.594 18.6728 101.1 18.5191C101.017 18.4935 100.935 18.4679 100.852 18.4679C100.523 18.4423 99.9455 18.5704 99.0935 18.9033C97.6919 19.4412 96.5926 19.6461 95.7681 19.5693C94.9711 19.4924 94.2291 19.1082 93.7893 18.4679C93.4595 18.0325 93.2946 17.5202 93.2672 17.0079C93.2672 16.4188 93.4321 15.8297 93.7893 15.3431C94.3115 14.6515 94.9436 14.0624 95.7131 13.6014C96.8674 12.8586 97.8843 12.5 98.7637 12.5C99.6432 12.5 100.468 12.8842 101.237 13.6782L98.7637 15.4968C98.269 14.9077 97.3346 14.7796 96.7025 15.2406L96.6201 15.3175C96.3452 15.4711 96.1529 15.7017 96.0429 15.9834C95.9605 16.1883 96.0154 16.4188 96.1529 16.5981C96.2628 16.7262 96.4277 16.8287 96.6201 16.8287C96.8399 16.8543 97.2247 16.7518 97.7743 16.5213C99.1485 15.9834 100.193 15.6761 100.907 15.5736C101.512 15.4711 102.144 15.5224 102.721 15.7529C103.243 15.9578 103.683 16.3164 103.985 16.7518C104.37 17.2641 104.59 17.8788 104.618 18.5191C104.645 19.1851 104.453 19.8254 104.068 20.3889C103.573 21.0805 102.941 21.6696 102.199 22.1306C100.688 23.1039 99.4508 23.5137 98.4614 23.36C97.3896 23.2064 96.5101 22.6941 95.878 21.9513V21.9513Z" fill="#540000"/>
</svg>
