<svg width="31" height="31" viewBox="0 0 31 31" fill="none" xmlns="http://www.w3.org/2000/svg">
<g clip-path="url(#clip0_6_6)">
<path d="M15.5 0C11.3901 0 7.44484 1.63404 4.54102 4.5398C1.63419 7.44672 0.0008052 11.3891 0 15.5C0 19.6092 1.63477 23.5544 4.54102 26.4602C7.44484 29.366 11.3901 31 15.5 31C19.6099 31 23.5552 29.366 26.459 26.4602C29.3652 23.5544 31 19.6092 31 15.5C31 11.3908 29.3652 7.44557 26.459 4.5398C23.5552 1.63404 19.6099 0 15.5 0Z" fill="url(#paint0_linear_6_6)"/>
<path d="M7.01617 15.3363C11.5354 13.3678 14.5482 12.0699 16.0546 11.4429C20.3607 9.65238 21.2544 9.34141 21.838 9.33087C21.9664 9.32881 22.2522 9.36054 22.4387 9.5113C22.5937 9.63845 22.6373 9.8104 22.6591 9.93113C22.6784 10.0517 22.7051 10.3266 22.6833 10.5412C22.4508 12.9921 21.4409 18.9398 20.9274 21.685C20.7119 22.8465 20.2832 23.2359 19.8691 23.274C18.9681 23.3568 18.2852 22.6792 17.4133 22.1078C16.0498 21.2134 15.2796 20.6569 13.9548 19.7843C12.4242 18.7758 13.4172 18.2215 14.2891 17.3157C14.5167 17.0786 18.4838 13.4712 18.5588 13.144C18.5685 13.1031 18.5782 12.9505 18.4862 12.8701C18.3966 12.7894 18.2634 12.817 18.1665 12.8388C18.0284 12.8698 15.8512 14.3104 11.6274 17.1602C11.0098 17.585 10.4504 17.7921 9.94664 17.7812C9.39446 17.7693 8.32883 17.4683 7.53688 17.211C6.56813 16.8955 5.79555 16.7286 5.86336 16.1926C5.89727 15.9137 6.28235 15.6281 7.01617 15.3363Z" fill="white"/>
</g>
<defs>
<linearGradient id="paint0_linear_6_6" x1="15.5" y1="0" x2="15.5" y2="31" gradientUnits="userSpaceOnUse">
<stop stop-color="#2AABEE"/>
<stop offset="1" stop-color="#229ED9"/>
</linearGradient>
<clipPath id="clip0_6_6">
<rect width="31" height="31" fill="white"/>
</clipPath>
</defs>
</svg>
